<?xml version="1.0" standalone="no"?><!DOCTYPE svg PUBLIC "-//W3C//DTD SVG 1.1//EN" "http://www.w3.org/Graphics/SVG/1.1/DTD/svg11.dtd"><svg t="1704611431585" class="icon" viewBox="0 0 1024 1024" version="1.1" xmlns="http://www.w3.org/2000/svg" p-id="4345" xmlns:xlink="http://www.w3.org/1999/xlink" width="200" height="200"><path d="M508.93 512.38m-306.68 0a306.68 306.68 0 1 0 613.36 0 306.68 306.68 0 1 0-613.36 0Z" fill="#FFFFFF" p-id="4346"></path><path d="M508.93 512.38m-306.68 0a306.68 306.68 0 1 0 613.36 0 306.68 306.68 0 1 0-613.36 0Z" fill="#F2DCBB" p-id="4347"></path><path d="M508.93 512.38c-84.69 0-153.34 68.65-153.34 153.34s68.65 153.34 153.34 153.34" fill="#916015" p-id="4348"></path><path d="M508.93 819.06c169.37 0 306.68-137.3 306.68-306.68S678.31 205.7 508.93 205.7" fill="#916015" p-id="4349"></path><path d="M507.32 511.84c84.69 0 153.34-68.65 153.34-153.34s-68.65-153.34-153.34-153.34" fill="#F2DCBB" p-id="4350"></path><path d="M486.08 683.2m-45.48 0a45.48 45.48 0 1 0 90.96 0 45.48 45.48 0 1 0-90.96 0Z" fill="#F2DCBB" p-id="4351"></path><path d="M486.08 367.11m-45.48 0a45.48 45.48 0 1 0 90.96 0 45.48 45.48 0 1 0-90.96 0Z" fill="#916015" p-id="4352"></path><path d="M390.22 140.24h237.97v23.05H390.22zM390.22 100.64H501.8v23.05H390.22zM516.62 100.64H628.2v23.05H516.62zM390.22 64.22H501.8v23.05H390.22zM516.62 64.22H628.2v23.05H516.62zM891.23 294.811L722.962 126.543l16.298-16.299L907.53 278.513zM168.141 393.387v237.97h-23.05v-237.97zM89.297 393.391v237.97h-23.05v-237.97zM130.457 393.394v111.58h-23.05v-111.58zM130.464 519.79v111.58h-23.05V519.79zM957.99 393.388v237.97h-23.05v-237.97zM879.146 393.392v237.97h-23.05v-237.97zM920.307 393.395v111.58h-23.05v-111.58zM920.313 519.792v111.58h-23.05v-111.58zM390.22 898.61h237.97v23.05H390.22zM390.22 860.93h237.97v23.05H390.22zM722.148 889.493L887.11 717.988l16.612 15.978-164.96 171.505zM694.095 862.51l164.96-171.505 16.613 15.978-164.961 171.505zM667.843 837.26l164.961-171.504 16.612 15.978-164.96 171.505zM166.924 331.644l74.852-77.821 16.612 15.978-74.852 77.821zM257.307 241.263l74.852-77.82 16.612 15.977-74.852 77.822zM138.87 304.656l164.96-171.505 16.613 15.979-164.961 171.505zM112.618 279.407L277.58 107.902l16.612 15.979-164.96 171.505zM863.24 322.814l-78.898-78.899 16.298-16.298 78.899 78.898zM773.864 233.428l-78.898-78.898 16.299-16.299 78.898 78.899zM837.484 348.566l-78.898-78.898 16.298-16.299 78.899 78.898zM748.108 259.18l-78.898-78.897 16.299-16.3 78.898 78.9zM390.22 936.28H501.8v23.05H390.22zM516.62 936.28H628.2v23.05H516.62zM174.333 667.113l78.898 78.898-16.298 16.298-78.899-78.898zM263.702 756.486l78.898 78.898-16.299 16.299-78.898-78.898zM148.584 692.865l78.899 78.898-16.299 16.299-78.898-78.898zM237.953 782.238l78.898 78.899-16.298 16.298-78.898-78.898zM123.712 717.73l78.899 78.898-16.299 16.298-78.898-78.898zM213.095 807.103L291.994 886l-16.3 16.299-78.897-78.899z" fill="#916015" p-id="4353"></path></svg>